<mxfile host="app.diagrams.net" modified="2023-07-07T07:36:51.876Z" agent="Mozilla/5.0 (Macintosh; Intel Mac OS X 10_15_7) AppleWebKit/537.36 (KHTML, like Gecko) Chrome/114.0.0.0 Safari/537.36" etag="gcLfppqtVbFAR1m3AJ3W" version="21.5.2" type="github">
  <diagram name="第 1 页" id="GTjmIuwZ7MfQycrmfvni">
    <mxGraphModel dx="2385" dy="1143" grid="1" gridSize="10" guides="1" tooltips="1" connect="1" arrows="1" fold="1" page="1" pageScale="1" pageWidth="827" pageHeight="1169" math="0" shadow="0">
      <root>
        <mxCell id="0" />
        <mxCell id="1" parent="0" />
        <mxCell id="aPKIPdep5ukZCCdNdI1W-1" value="" style="ellipse;html=1;shape=startState;fillColor=#000000;strokeColor=#ff0000;" vertex="1" parent="1">
          <mxGeometry x="390" y="50" width="30" height="30" as="geometry" />
        </mxCell>
        <mxCell id="aPKIPdep5ukZCCdNdI1W-2" value="" style="edgeStyle=orthogonalEdgeStyle;html=1;verticalAlign=bottom;endArrow=classicThin;endSize=8;strokeColor=#000000;rounded=0;endFill=1;" edge="1" source="aPKIPdep5ukZCCdNdI1W-1" parent="1">
          <mxGeometry relative="1" as="geometry">
            <mxPoint x="405" y="140" as="targetPoint" />
          </mxGeometry>
        </mxCell>
        <mxCell id="aPKIPdep5ukZCCdNdI1W-4" style="edgeStyle=orthogonalEdgeStyle;rounded=0;orthogonalLoop=1;jettySize=auto;html=1;" edge="1" parent="1" source="aPKIPdep5ukZCCdNdI1W-3">
          <mxGeometry relative="1" as="geometry">
            <mxPoint x="405" y="260" as="targetPoint" />
          </mxGeometry>
        </mxCell>
        <mxCell id="aPKIPdep5ukZCCdNdI1W-3" value="&lt;font style=&quot;font-size: 15px;&quot;&gt;告警处理&lt;/font&gt;" style="rounded=1;whiteSpace=wrap;html=1;" vertex="1" parent="1">
          <mxGeometry x="345" y="140" width="120" height="60" as="geometry" />
        </mxCell>
        <mxCell id="aPKIPdep5ukZCCdNdI1W-7" style="edgeStyle=orthogonalEdgeStyle;rounded=0;orthogonalLoop=1;jettySize=auto;html=1;entryX=0.5;entryY=0;entryDx=0;entryDy=0;" edge="1" parent="1" source="aPKIPdep5ukZCCdNdI1W-6" target="aPKIPdep5ukZCCdNdI1W-16">
          <mxGeometry relative="1" as="geometry">
            <mxPoint x="530" y="310" as="targetPoint" />
          </mxGeometry>
        </mxCell>
        <mxCell id="aPKIPdep5ukZCCdNdI1W-11" style="edgeStyle=orthogonalEdgeStyle;rounded=0;orthogonalLoop=1;jettySize=auto;html=1;entryX=0.5;entryY=0;entryDx=0;entryDy=0;" edge="1" parent="1" source="aPKIPdep5ukZCCdNdI1W-6" target="aPKIPdep5ukZCCdNdI1W-10">
          <mxGeometry relative="1" as="geometry" />
        </mxCell>
        <mxCell id="aPKIPdep5ukZCCdNdI1W-6" value="&lt;font style=&quot;font-size: 15px;&quot;&gt;是否立刻发送&lt;/font&gt;" style="strokeWidth=1;html=1;shape=mxgraph.flowchart.decision;whiteSpace=wrap;" vertex="1" parent="1">
          <mxGeometry x="355" y="260" width="100" height="100" as="geometry" />
        </mxCell>
        <mxCell id="aPKIPdep5ukZCCdNdI1W-14" style="edgeStyle=orthogonalEdgeStyle;rounded=0;orthogonalLoop=1;jettySize=auto;html=1;entryX=0.5;entryY=0;entryDx=0;entryDy=0;" edge="1" parent="1" source="aPKIPdep5ukZCCdNdI1W-10" target="aPKIPdep5ukZCCdNdI1W-13">
          <mxGeometry relative="1" as="geometry" />
        </mxCell>
        <mxCell id="aPKIPdep5ukZCCdNdI1W-10" value="&lt;font style=&quot;font-size: 15px;&quot;&gt;告警发送&lt;/font&gt;" style="rounded=1;whiteSpace=wrap;html=1;" vertex="1" parent="1">
          <mxGeometry x="190" y="360" width="120" height="60" as="geometry" />
        </mxCell>
        <mxCell id="aPKIPdep5ukZCCdNdI1W-12" value="&lt;font style=&quot;font-size: 15px;&quot;&gt;是&lt;/font&gt;" style="text;html=1;align=center;verticalAlign=middle;resizable=0;points=[];autosize=1;strokeColor=none;fillColor=none;" vertex="1" parent="1">
          <mxGeometry x="290" y="278" width="40" height="30" as="geometry" />
        </mxCell>
        <mxCell id="aPKIPdep5ukZCCdNdI1W-13" value="" style="ellipse;html=1;shape=endState;fillColor=#000000;strokeColor=#ff0000;" vertex="1" parent="1">
          <mxGeometry x="235" y="470" width="30" height="30" as="geometry" />
        </mxCell>
        <mxCell id="aPKIPdep5ukZCCdNdI1W-15" value="&lt;font style=&quot;font-size: 15px;&quot;&gt;否&lt;/font&gt;" style="text;html=1;align=center;verticalAlign=middle;resizable=0;points=[];autosize=1;strokeColor=none;fillColor=none;" vertex="1" parent="1">
          <mxGeometry x="470" y="278" width="40" height="30" as="geometry" />
        </mxCell>
        <mxCell id="aPKIPdep5ukZCCdNdI1W-17" style="edgeStyle=orthogonalEdgeStyle;rounded=0;orthogonalLoop=1;jettySize=auto;html=1;" edge="1" parent="1" source="aPKIPdep5ukZCCdNdI1W-16">
          <mxGeometry relative="1" as="geometry">
            <mxPoint x="560" y="510" as="targetPoint" />
          </mxGeometry>
        </mxCell>
        <mxCell id="aPKIPdep5ukZCCdNdI1W-16" value="&lt;font style=&quot;font-size: 15px;&quot;&gt;加入到聚合器&lt;/font&gt;" style="rounded=1;whiteSpace=wrap;html=1;" vertex="1" parent="1">
          <mxGeometry x="500" y="360" width="120" height="60" as="geometry" />
        </mxCell>
        <mxCell id="aPKIPdep5ukZCCdNdI1W-20" value="" style="shape=line;html=1;strokeWidth=6;strokeColor=#0a0000;" vertex="1" parent="1">
          <mxGeometry x="360" y="510" width="400" height="10" as="geometry" />
        </mxCell>
        <mxCell id="aPKIPdep5ukZCCdNdI1W-30" style="edgeStyle=orthogonalEdgeStyle;rounded=0;orthogonalLoop=1;jettySize=auto;html=1;entryX=0.189;entryY=0.5;entryDx=0;entryDy=0;entryPerimeter=0;" edge="1" parent="1" source="aPKIPdep5ukZCCdNdI1W-22" target="aPKIPdep5ukZCCdNdI1W-29">
          <mxGeometry relative="1" as="geometry" />
        </mxCell>
        <mxCell id="aPKIPdep5ukZCCdNdI1W-22" value="&lt;font style=&quot;font-size: 15px;&quot;&gt;开启定时器&lt;/font&gt;" style="rounded=1;whiteSpace=wrap;html=1;" vertex="1" parent="1">
          <mxGeometry x="370" y="590" width="120" height="60" as="geometry" />
        </mxCell>
        <mxCell id="aPKIPdep5ukZCCdNdI1W-31" style="edgeStyle=orthogonalEdgeStyle;rounded=0;orthogonalLoop=1;jettySize=auto;html=1;entryX=0.838;entryY=0.133;entryDx=0;entryDy=0;entryPerimeter=0;" edge="1" parent="1" source="aPKIPdep5ukZCCdNdI1W-23" target="aPKIPdep5ukZCCdNdI1W-29">
          <mxGeometry relative="1" as="geometry" />
        </mxCell>
        <mxCell id="aPKIPdep5ukZCCdNdI1W-23" value="&lt;font style=&quot;font-size: 15px;&quot;&gt;内存聚合消息&lt;/font&gt;" style="rounded=1;whiteSpace=wrap;html=1;" vertex="1" parent="1">
          <mxGeometry x="630" y="590" width="120" height="60" as="geometry" />
        </mxCell>
        <mxCell id="aPKIPdep5ukZCCdNdI1W-25" value="" style="edgeStyle=orthogonalEdgeStyle;html=1;verticalAlign=bottom;endArrow=classicThin;endSize=8;strokeColor=#000000;rounded=0;exitX=0.175;exitY=1;exitDx=0;exitDy=0;exitPerimeter=0;endFill=1;" edge="1" parent="1" source="aPKIPdep5ukZCCdNdI1W-20" target="aPKIPdep5ukZCCdNdI1W-22">
          <mxGeometry relative="1" as="geometry">
            <mxPoint x="570" y="600" as="targetPoint" />
            <mxPoint x="570" y="530" as="sourcePoint" />
          </mxGeometry>
        </mxCell>
        <mxCell id="aPKIPdep5ukZCCdNdI1W-26" value="" style="edgeStyle=orthogonalEdgeStyle;html=1;verticalAlign=bottom;endArrow=classic;endSize=8;strokeColor=#000000;rounded=0;exitX=0.825;exitY=1;exitDx=0;exitDy=0;exitPerimeter=0;endFill=1;" edge="1" parent="1" source="aPKIPdep5ukZCCdNdI1W-20" target="aPKIPdep5ukZCCdNdI1W-23">
          <mxGeometry relative="1" as="geometry">
            <mxPoint x="570" y="600" as="targetPoint" />
            <mxPoint x="690" y="530" as="sourcePoint" />
          </mxGeometry>
        </mxCell>
        <mxCell id="aPKIPdep5ukZCCdNdI1W-34" style="edgeStyle=orthogonalEdgeStyle;rounded=0;orthogonalLoop=1;jettySize=auto;html=1;entryX=0.5;entryY=0;entryDx=0;entryDy=0;" edge="1" parent="1" source="aPKIPdep5ukZCCdNdI1W-29" target="aPKIPdep5ukZCCdNdI1W-33">
          <mxGeometry relative="1" as="geometry" />
        </mxCell>
        <mxCell id="aPKIPdep5ukZCCdNdI1W-29" value="" style="shape=line;html=1;strokeWidth=6;strokeColor=#0a0000;" vertex="1" parent="1">
          <mxGeometry x="355" y="710" width="400" height="10" as="geometry" />
        </mxCell>
        <mxCell id="aPKIPdep5ukZCCdNdI1W-35" style="edgeStyle=orthogonalEdgeStyle;rounded=0;orthogonalLoop=1;jettySize=auto;html=1;" edge="1" parent="1" source="aPKIPdep5ukZCCdNdI1W-33">
          <mxGeometry relative="1" as="geometry">
            <mxPoint x="555" y="940" as="targetPoint" />
          </mxGeometry>
        </mxCell>
        <mxCell id="aPKIPdep5ukZCCdNdI1W-33" value="&lt;font style=&quot;font-size: 15px;&quot;&gt;组装告警内容&lt;/font&gt;" style="rounded=1;whiteSpace=wrap;html=1;" vertex="1" parent="1">
          <mxGeometry x="495" y="800" width="120" height="60" as="geometry" />
        </mxCell>
        <mxCell id="aPKIPdep5ukZCCdNdI1W-38" style="edgeStyle=orthogonalEdgeStyle;rounded=0;orthogonalLoop=1;jettySize=auto;html=1;entryX=0.5;entryY=0;entryDx=0;entryDy=0;" edge="1" parent="1" source="aPKIPdep5ukZCCdNdI1W-36" target="aPKIPdep5ukZCCdNdI1W-37">
          <mxGeometry relative="1" as="geometry" />
        </mxCell>
        <mxCell id="aPKIPdep5ukZCCdNdI1W-36" value="&lt;font style=&quot;font-size: 15px;&quot;&gt;告警发送&lt;/font&gt;" style="rounded=1;whiteSpace=wrap;html=1;" vertex="1" parent="1">
          <mxGeometry x="495" y="940" width="120" height="60" as="geometry" />
        </mxCell>
        <mxCell id="aPKIPdep5ukZCCdNdI1W-37" value="" style="ellipse;html=1;shape=endState;fillColor=#000000;strokeColor=#ff0000;" vertex="1" parent="1">
          <mxGeometry x="540" y="1070" width="30" height="30" as="geometry" />
        </mxCell>
      </root>
    </mxGraphModel>
  </diagram>
</mxfile>
